<svg xmlns="http://www.w3.org/2000/svg" viewBox="0 0 880 420" role="img" aria-label="KOSIF calm accounting and audit landscape">
<defs><linearGradient id="sky" x1="0" y1="0" x2="1" y2="1"><stop stop-color="#dff4f1"/><stop offset=".48" stop-color="#f6f2df"/><stop offset="1" stop-color="#edf3e4"/></linearGradient><linearGradient id="hill1" x1="0" y1="0" x2="1" y2="1"><stop stop-color="#afcaaa"/><stop offset="1" stop-color="#789f82"/></linearGradient><linearGradient id="hill2" x1="0" y1="0" x2="1" y2="1"><stop stop-color="#d8dfbb"/><stop offset="1" stop-color="#a8c1a3"/></linearGradient><linearGradient id="water" x1="0" y1="0" x2="1" y2="0"><stop stop-color="#d5eee8"/><stop offset="1" stop-color="#9fd0c4"/></linearGradient><linearGradient id="gold" x1="0" y1="0" x2="1" y2="1"><stop stop-color="#e8cb86"/><stop offset="1" stop-color="#b99043"/></linearGradient><filter id="shadow" x="-30%" y="-30%" width="160%" height="160%"><feDropShadow dx="0" dy="12" stdDeviation="13" flood-color="#53715f" flood-opacity=".18"/></filter></defs>
<rect width="880" height="420" rx="42" fill="url(#sky)"/><circle cx="640" cy="92" r="42" fill="#fff5c8" opacity=".9"/><g fill="#6f8d78" opacity=".62"><path d="M686 74q18-18 36 0q-18-9-36 0z"/><path d="M730 91q12-12 24 0q-12-6-24 0z"/></g><path d="M0 270C95 200 170 214 256 266c84 51 165 29 244-34 76-60 168-69 380 34v154H0z" fill="url(#hill2)"/><path d="M0 305c128-76 219-57 324 5 98 59 179 26 276-35 99-62 177-36 280 15v130H0z" fill="url(#hill1)" opacity=".96"/><path d="M0 335c162-25 312 20 439 19 153-1 287-62 441-30v96H0z" fill="url(#water)"/><path d="M0 372c213-24 389 18 561-2 123-14 210-36 319-26" fill="none" stroke="#fff" stroke-width="3" opacity=".55"/>
<g transform="translate(572 138)" filter="url(#shadow)"><path d="M69 126h104l-13-15v-64h-16V19h-17V0h-18v19H92v28H77v64z" fill="#f6efdb" stroke="#b99a61" stroke-width="2"/><rect x="107" y="63" width="26" height="63" rx="11" fill="#b9cab2"/><path d="M93 47h54M101 30h38" stroke="#b99a61" stroke-width="3" stroke-linecap="round"/></g>
<g transform="translate(58 56)" filter="url(#shadow)"><rect width="282" height="274" rx="28" fill="#fff" opacity=".94"/><rect x="30" y="29" width="118" height="18" rx="9" fill="#dcebe1"/><rect x="30" y="61" width="192" height="12" rx="6" fill="#edf2ed"/><rect x="30" y="85" width="160" height="12" rx="6" fill="#edf2ed"/><g transform="translate(34 132)"><rect y="54" width="32" height="53" rx="8" fill="#8fb99c"/><rect x="46" y="25" width="32" height="82" rx="8" fill="#d4bb75"/><rect x="92" y="42" width="32" height="65" rx="8" fill="#9eb6dc"/><rect x="138" y="2" width="32" height="105" rx="8" fill="#6ca58a"/><path d="M0 40c36-14 61 4 91-22 31-27 53-5 82-35" fill="none" stroke="#315f4a" stroke-width="6" stroke-linecap="round"/><circle cx="173" cy="-17" r="8" fill="#315f4a"/></g><g transform="translate(190 170)"><circle cx="36" cy="36" r="31" fill="#e9f2ec" stroke="#4e856d" stroke-width="7"/><path d="M58 59l36 38" stroke="#4e856d" stroke-width="12" stroke-linecap="round"/><path d="M23 37l10 10 19-24" fill="none" stroke="#315f4a" stroke-width="7" stroke-linecap="round" stroke-linejoin="round"/></g></g>
<g transform="translate(380 297)"><ellipse cx="55" cy="28" rx="55" ry="18" fill="#aa8745" opacity=".26"/><rect y="12" width="110" height="20" rx="10" fill="#d1ad61"/><ellipse cx="55" cy="12" rx="55" ry="18" fill="url(#gold)"/><ellipse cx="85" cy="48" rx="55" ry="18" fill="#98763b" opacity=".18"/><rect x="30" y="32" width="110" height="20" rx="10" fill="#c69d52"/><ellipse cx="85" cy="32" rx="55" ry="18" fill="#dfc278"/></g></svg>