<svg xmlns="http://www.w3.org/2000/svg" viewBox="0 0 960 540" role="img" aria-label="KOSIF Egyptian cosmic audit intelligence scene">
<defs>
  <linearGradient id="sky" x1="0" y1="0" x2="0" y2="1"><stop stop-color="#030816"/><stop offset=".55" stop-color="#071a38"/><stop offset="1" stop-color="#0b2145"/></linearGradient>
  <linearGradient id="gold" x1="0" y1="0" x2="1" y2="1"><stop stop-color="#fff0a8"/><stop offset=".25" stop-color="#f7d36c"/><stop offset=".62" stop-color="#c8892f"/><stop offset="1" stop-color="#805018"/></linearGradient>
  <linearGradient id="neon" x1="0" y1="0" x2="1" y2="0"><stop stop-color="#2edfff"/><stop offset=".48" stop-color="#6175ff"/><stop offset=".78" stop-color="#d44aff"/><stop offset="1" stop-color="#ff8a49"/></linearGradient>
  <radialGradient id="galaxy"><stop stop-color="#fff6cf"/><stop offset=".08" stop-color="#e9b4ff"/><stop offset=".25" stop-color="#6b73ff" stop-opacity=".9"/><stop offset=".55" stop-color="#5f2fc8" stop-opacity=".35"/><stop offset="1" stop-color="#051128" stop-opacity="0"/></radialGradient>
  <filter id="glow" x="-100%" y="-100%" width="300%" height="300%"><feGaussianBlur stdDeviation="6" result="b"/><feMerge><feMergeNode in="b"/><feMergeNode in="SourceGraphic"/></feMerge></filter>
  <filter id="soft" x="-50%" y="-50%" width="200%" height="200%"><feGaussianBlur stdDeviation="14"/></filter>
</defs>
<rect width="960" height="540" rx="36" fill="url(#sky)"/>
<g opacity=".95" fill="#fff"><circle cx="74" cy="68" r="1.8"/><circle cx="128" cy="116" r="1.4"/><circle cx="204" cy="55" r="2"/><circle cx="285" cy="91" r="1.2"/><circle cx="371" cy="48" r="1.8"/><circle cx="455" cy="103" r="1.4"/><circle cx="548" cy="54" r="1.6"/><circle cx="634" cy="122" r="1.8"/><circle cx="712" cy="49" r="1.3"/><circle cx="815" cy="84" r="2"/><circle cx="892" cy="45" r="1.4"/><circle cx="929" cy="146" r="1.5"/></g>
<ellipse cx="735" cy="118" rx="182" ry="112" fill="url(#galaxy)" transform="rotate(-20 735 118)" opacity=".92"/>
<path d="M586 148c76-70 195-81 302-23" fill="none" stroke="url(#neon)" stroke-width="3.5" opacity=".75" filter="url(#glow)"/>
<path d="M610 164c69-45 158-53 245-18" fill="none" stroke="#ffbdff" stroke-width="1.7" opacity=".55"/>
<g transform="translate(455 28)" stroke="url(#gold)" fill="none" stroke-width="5" filter="url(#glow)"><circle cx="25" cy="18" r="15"/><ellipse cx="25" cy="50" rx="15" ry="20"/><path d="M10 44C-18 33-55 21-85 6c16 33 50 55 84 61M40 44c28-11 65-23 95-38-16 33-50 55-84 61M5 59l-25 28M45 59l25 28M25 70v32"/></g>
<text x="480" y="154" text-anchor="middle" font-family="Georgia,serif" font-size="88" letter-spacing="5" fill="url(#gold)" filter="url(#glow)">KOSIF</text>
<text x="655" y="154" font-family="Arial,sans-serif" font-size="42" fill="#d8ddff">v38</text>
<text x="480" y="190" text-anchor="middle" font-family="Arial,sans-serif" font-size="18" letter-spacing="7" fill="#e5ecff">TRUSTED AUDIT INTELLIGENCE OS</text>
<g opacity=".98"><path d="M0 410L178 235l170 175z" fill="#0a1425" stroke="#bb7a2d" stroke-width="2"/><path d="M122 410L288 275l137 135z" fill="#0d1b32" stroke="#d8a34d" stroke-width="2"/><path d="M74 410L178 235l16 175z" fill="#151c2c" opacity=".9"/><path d="M260 410L288 275l24 135z" fill="#182640" opacity=".9"/></g>
<g fill="none" stroke="url(#gold)" stroke-width="2" opacity=".8"><path d="M58 410V292M92 410V266M870 410V286M907 410V250"/><path d="M49 292h18l-9-23zM83 266h18l-9-23zM861 286h18l-9-23zM898 250h18l-9-23z"/></g>
<path d="M-20 436C160 378 303 493 474 430s296-20 506-96" fill="none" stroke="url(#neon)" stroke-width="18" opacity=".9" filter="url(#glow)"/>
<path d="M-20 437C160 379 303 494 474 431s296-20 506-96" fill="none" stroke="#8bd7ff" stroke-width="4" opacity=".7"/>
<g transform="translate(560 244)"><rect width="340" height="212" rx="24" fill="#07172b" fill-opacity=".93" stroke="#536dff" stroke-width="2"/><rect x="18" y="18" width="304" height="36" rx="11" fill="#0c2240"/><text x="302" y="42" text-anchor="end" font-family="Arial" font-size="15" fill="#edf4ff">Executive Overview</text><g fill="#0c2442" stroke="#264a78"><rect x="18" y="72" width="92" height="56" rx="12"/><rect x="124" y="72" width="92" height="56" rx="12"/><rect x="230" y="72" width="92" height="56" rx="12"/></g><text x="64" y="104" text-anchor="middle" font-family="Arial" font-size="24" fill="#64e7ff">92%</text><text x="170" y="104" text-anchor="middle" font-family="Arial" font-size="24" fill="#ffcf6e">128</text><text x="276" y="104" text-anchor="middle" font-family="Arial" font-size="24" fill="#ff6b8e">23</text><rect x="18" y="145" width="185" height="48" rx="12" fill="#091f39" stroke="#294463"/><path d="M34 182l26-15 24 8 27-26 25 13 28-30 24 11" fill="none" stroke="url(#neon)" stroke-width="4"/><rect x="216" y="145" width="106" height="48" rx="12" fill="#091f39" stroke="#294463"/><circle cx="269" cy="169" r="18" fill="none" stroke="#34d6ff" stroke-width="7" stroke-dasharray="82 30"/></g>
<g transform="translate(82 446)" font-family="Arial" font-size="13" fill="#f6deb0"><text x="0" y="0">SECURE</text><text x="145" y="0">INTELLIGENT</text><text x="326" y="0">INSIGHTFUL</text><text x="510" y="0">AUTOMATED</text><text x="690" y="0">TRUSTED</text></g>
<g opacity=".45" filter="url(#soft)"><circle cx="189" cy="468" r="42" fill="#2d6fff"/><circle cx="476" cy="470" r="38" fill="#8c3cff"/><circle cx="780" cy="468" r="34" fill="#f3a93e"/></g>
</svg>